<svg xmlns="http://www.w3.org/2000/svg" viewBox="0 0 24 24" width="24" height="24">
	<rect x="1.680" y="1.680" width="20.640" height="20.640" rx="2.160" ry="2.160" fill="#f6f6f6"/>
	<svg x="2.280" y="3.960" width="19.440" height="14.580" viewBox="0 0 3840 2880">
	<style>
		.s0 { fill: #7aa5e8;stroke: #79a5e8;paint-order:stroke fill markers;stroke-linejoin: round;stroke-width: 2 } 
		.s1 { fill: #3f4f60;stroke: #3e4f60;paint-order:stroke fill markers;stroke-linejoin: round;stroke-width: 2 } 
		.s2 { fill: #fac975 } 
	</style>
	<g id="Icon">
		<path id="Blue" fill-rule="evenodd" class="s0" d="m2032.6 238.78c35 29.47 116.37 167.04 128.21 216.79l3.72 15.64-55.35-14.51c-33-8.67-81.28-15.96-119.69-18.05l-64.39-3.53 3.8-30.22c5.07-39.93 35.64-137.86 50.62-162.12 14.45-23.39 28.76-24.46 53.08-4zm1019 162.86c28.34 80.95 26.05 90.3-87.58 361.45-43.03 102.72-89.71 214.81-103.7 249.05-51.74 126.6-44.73 116.34-81.99 120.17-153.5 15.86-246.07 218.36-159.06 347.95l16.95 25.22-20.57 61.17-20.58 61.13-39.33-14.9c-21.64-8.21-67.38-25.17-101.62-37.65-95.11-34.72-100.8-37.35-100.8-46.24 0-9.94 23.06-96.24 51.73-193.69 11.52-39.12 28.24-97.84 37.16-130.46 8.94-32.62 33.77-119.33 55.18-192.7 21.41-73.38 60.3-213.48 86.41-311.32 87.29-327.19 80.6-306.18 110.53-346.95 23.55-32.09 58.07-57.86 97.07-72.44 100.91-37.79 224.94 19.51 260.2 120.21zm-246.72 19.77c-56.28 50.96-30.77 136.15 43.29 144.51 79.24 8.93 121.31-87.47 62.66-143.65-27.97-26.82-76.82-27.2-105.95-0.86zm-1642.59 309.22c42.63 7.76 135.55 36.11 135.55 41.35 0 0.97-11.12 20.05-24.71 42.38-28.01 46.08-59.86 113.58-70.8 150.16l-7.4 24.66-20.12-31.51c-58.57-91.7-101.21-207.07-84.13-227.65 8.72-10.49 10.86-10.46 71.61 0.61zm1654.59 510.4c-1.51 30.98-25.95 47.24-43.42 29.77-14.62-14.61-17.48-37.98-4.97-56.24 19.06-27.8 50.59-18.61 48.39 26.47zm76.91-18.2c17.99 11.9 20.88 47.54 4.55 64.93-31.69 33.71-75.28-15.41-45.07-51.28 14.24-16.92 28.97-21.25 40.52-13.65zm-158.79 62.03c-0.16 32.28-40.06 45.92-56.24 16.96-7.85-14.01-6.89-25.49 1.13-37.61 19.82-29.92 55.25-10.26 55.11 20.65zm233.23 22.33c17.28 30.75-21.1 73.66-46.32 50.87-15.51-14.07-18.72-39.57-0.82-57.48 17.5-17.48 34.85-15.24 47.14 6.61zm-145.98 8.27c70.67 12.11 119.21 113.22 62.99 164.41-20.14 18.34-29.61 17.13-47.69 13.83-11.43-2.09-25.49 0.11-45.07-0.42-30.07-0.78-65.2-15.4-78.16-31.84-31.39-39.82-11.86-116.37 58.72-143.49 10.37-3.99 36.56-4.65 49.21-2.49zm-314.76 333.83c255.75 94.89 288.62 136.69 223.17 283.67-15.36 34.45 2.04 37.5-183.96-32.3-78.64-29.52-203.02-75.67-276.41-102.53-73.35-26.88-152.07-56.76-174.9-66.41l-41.51-17.55 1.15-25.33c2.36-51.35 40.04-106.89 87.54-128.99 51.92-24.2 71.74-19.34 364.92 89.44zm633.64 176.7c21 93.59 80.71 155.64 181.12 188.21l23.17 7.5-32.06 13.12c-96.95 39.65-137.6 81.5-168.74 173.79-18.44 54.56-19.68 54.73-34.87 4.27-28.52-94.62-123.92-185.43-196.5-187.03-6.3-0.13 10.47-9.08 37.26-19.89 91.18-36.76 147.57-101.02 170.89-194.8 6.06-24.32 11.94-19.91 19.73 14.83zm-124.56 527.08c19.55 39.49 24.54 45.06 52.4 58.47 36.71 17.68 37.32 19.22 11.31 28.62-37.52 13.56-68.84 49.56-80.86 92.94-2.45 8.81-5.41 4.36-11.49-17.37-9.68-34.53-43.35-71.37-70.69-77.38-24.8-5.43-23.22-10.26 8.42-25.61 28.57-13.91 58.15-52.56 65.39-85.52 3.78-17.23 4.59-16.4 25.52 25.85zm-245.46 168.24c-15.45 41.1-15.48 41.35-3.59 49.25 32.85 21.8-119.65 119.26-232.97 148.89-53.27 13.9-70.51 15.43-37.53 3.3 77.12-28.32 188.37-127.67 188.37-168.24 0-8.95 4.62-12.23 19.26-13.62 16.03-1.54 24.28-8.61 48.91-41.8 35.08-47.23 40.91-39.85 17.55 22.22z"/>
		<path id="Dark Blue" fill-rule="evenodd" class="s1" d="m2123.6 159.63c81.08 104.73 151.55 237.64 191.07 360.35 8.33 25.92 18.65 40.52 50.27 71.16 65.33 63.31 121.06 137.65 108.42 144.58-17.42 9.53-107.93 80.34-170.45 133.4-32.62 27.68-60.45 51.21-61.87 52.29-1.39 1.1 0.11 4.64 3.33 7.87 3.91 3.92 18.76-5.24 44.09-27.21 20.99-18.21 65.93-54.94 99.88-81.6 33.93-26.66 70.72-56.21 81.77-65.59 39.01-33.32 45.41 1.65 16.79 91.93l-13.86 43.77-73.21 32.9c-80.7 36.27-129.54 63.19-129.54 71.43 0 9.54 9.79 5.98 90.03-32.83 95.14-46.02 108.08-50.41 103.72-35.03-1.71 6.04-34.24 119.05-72.31 251.11-38.05 132.08-74.81 260.18-81.71 284.64-6.87 24.45-13.25 45.52-14.11 46.8-0.9 1.29-16.46-2.34-34.58-8.03-103.49-32.56-205.85 17.53-250.56 122.57-6.79 15.95-16.85 74.49-14.35 83.54 2.67 9.62-148.7 182.13-223 254.1-128.97 124.94-247.73 193.82-380.37 220.58-48.38 9.76-48.58 11.15-9.41 58.62 50.98 61.85 127.83 108.87 201.99 123.61l37.46 7.42-25.97 13.84c-14.28 7.6-30.1 13.82-35.14 13.82-15.19 0-10.52 7.59 22.05 35.85 70.33 61.05 139.4 95.4 219.38 109.12 16.69 2.86 81.46 35.82 81.46 41.44 0 15.63-274.11-43.46-361.7-77.96-265.29-104.52-502.13-336.75-500.66-490.9 0.9-92.49 117.37-252.97 220.12-303.21l33.59-16.46 58.06 30.21 58.04 30.17-32.64-38.47c-17.97-21.17-46.26-58.9-62.86-83.83-16.64-24.95-32.41-47.73-35.03-50.67-2.7-2.96-20.29 8.11-40.04 25.22-32.6 28.22-48.44 36.81-48.44 26.21 0-2.36 16.37-20.78 36.36-40.96l36.35-36.68-21.52-50.09c-11.86-27.55-21.54-54.5-21.54-59.85 0-14.33-6.32-12.44-55.28 16.51-24.41 14.45-45.98 24.68-47.92 22.74-9.34-9.34 0.18-19.23 43.9-45.66 28.34-17.13 47.36-32.53 47.26-38.25-0.11-5.25-4.05-36.24-8.77-68.85-4.72-32.62-8.66-86.27-8.71-119.23-0.13-58.7-0.52-60.45-19.95-85.99-98.59-129.66-187.36-338.63-187.62-441.72-0.17-62.21 34.13-96.12 102.8-101.63 67.49-5.4 322.66 37.5 344.04 57.84 2.83 2.7 21.51-7.74 41.51-23.26 67.46-52.29 165.25-103.71 253.99-133.55l43.25-14.53 12.3-52.48c33.82-144.47 112.51-304.08 170.86-346.61 52.69-38.39 114.87-10.26 188.98 85.49zm-144.08 83.15c-14.98 24.26-45.55 122.19-50.62 162.12l-3.8 30.22 64.39 3.53c38.41 2.09 86.69 9.38 119.69 18.05l55.35 14.51-3.72-15.64c-11.84-49.75-93.21-187.32-128.21-216.79-24.32-20.46-38.63-19.39-53.08 4zm-888.84 487.24c-17.08 20.58 25.56 135.95 84.13 227.65l20.12 31.51 7.4-24.66c10.94-36.58 42.79-104.08 70.8-150.16 13.59-22.33 24.71-41.41 24.71-42.38 0-5.24-92.92-33.59-135.55-41.35-60.75-11.07-62.89-11.1-71.61-0.61zm865.49 176.86c-0.14 22.35 20.59 34.13 26.05 14.82 1.15-4.07 5.38-19.42 9.37-34.08 17.76-65.34 92.15-97.08 160.65-68.62 5.44 2.25 12.66 0.03 17.03-5.24 10.42-12.55-0.38-24.91-28.57-32.76-87.43-24.27-184.04 41.65-184.53 125.88zm-491.29 263.02c3.01 26.39 24.37 23.74 28.96-3.6 13.2-78.54 95.82-121.12 167.54-86.35 16.11 7.81 24.43 9.12 28.96 4.59 10.57-10.61 0.47-24.83-26.26-36.94-86.53-39.28-209.05 35.94-199.2 122.3zm345.74-45.51c5.35 16.85 23.09 25.14 54.79 25.62 57.8 0.88 66.62 83.9 12.4 116.94-23.11 14.09-62.1 15.71-79.78 3.33-13.59-9.53-19.89-6.67-19.89 8.94 0 26.72 82.86 31.13 117.76 6.28 21.91-15.59 35.57-39.36 37.54-65.25 1.63-21.44 0.26-21.08 32.51-8.77 67.88 25.92 162.06-46.39 127.37-97.82-8.71-12.94-18.68-1.94-18.68 20.65 0 56.76-90.21 78.79-131.96 32.22-20.12-22.46-20.15-27.13-0.66-65.96 11.42-22.73 14.06-33.69 9.79-40.51-20.21-32.3-152.68 28.07-141.19 64.33zm1178.17 106.71c81.73 128.84 21.28 317.04-158.17 492.59l-33.34 32.61-11.76-14.82c-33.4-42.07-62.42-65.65-99.97-81.35l-39.99-16.69 13.33-44.37c7.34-24.39 14.11-47.04 15.08-50.3 0.95-3.27-10.69-18.59-25.92-34.05-113.48-115.53-61.78-325.33 92.63-375.82 82.36-26.91 200.38 16.96 248.11 92.2zm-2040.8 109.5c0 31.88-26.62 108.63-53.7 154.81-61.43 104.69-85.65 171.92-95.44 264.64-32.64 309.48 259.58 664.47 687.07 834.63 548.23 218.2 1056.84 78.58 1240.27-340.42 39.97-91.34 36.94-86.12 33.33-57.37-20.1 159.51-232.74 408.6-436.7 511.56-769 388.18-1884.12-280.83-1824.61-1094.71 16.33-223.07 125.03-401.27 262.13-429.62 97.19-20.11 187.65 55.33 187.65 156.48zm1823.7-125.52c-20.6 29.4 1.7 73.77 28.26 56.25 14.9-9.84 20.84-47.44 9.61-60.95-10.35-12.47-27.33-10.37-37.87 4.7zm89.35 22.61c-18.66 22.18-19.4 31.52-3.71 47.2 19.92 19.93 50.15-1.46 46.43-32.8-3.5-29.25-24.34-36.28-42.72-14.4zm-179.61 27.13c-18.49 28.21 17.37 64.66 42.82 43.53 11.97-9.94 10.68-37.46-2.28-49.22-15.49-14.02-28.86-12.15-40.54 5.69zm244.25 40.12c-17.89 17.92-19.07 33.69-3.56 47.76 25.22 22.79 59.24-11.37 41.96-42.12-12.29-21.85-20.9-23.11-38.4-5.64zm-1722.72 111.96c0 7.14 4.61 5.67 88.95-28.63 37.52-15.24 105.79-37.38 151.73-49.25 57.42-14.76 82.77-23.82 81.04-28.91-7.65-22.67-321.72 81.6-321.72 106.79zm1509.98 29.89c14.53 28.21 30.25 36.62 70.27 37.68 19.58 0.52 44.92 2.7 56.34 4.88 79.21 15.05 83.8-125 5.4-164.15-74.78-37.32-169.11 49.56-132.01 121.59zm-1378.03 53.21c-43.22 32.32-78.58 60.71-78.58 63.16 0 13.28 10.93 9.5 37.99-13.13 65.49-54.78 139.96-105.03 214.32-144.57 27.54-14.67 50.12-29.1 50.12-32.09 0-21.91-103.44 36.61-223.85 126.63z"/>
		<path id="Yellow" fill-rule="evenodd" class="s2" d="m2005.39 1793.37c-169.63 229.07-420.14 428.4-538.37 428.4-41.4 0 53.82 63.22 121.22 80.5 93.1 23.85 173.32 0.4 286.85-83.83 60.43-44.81 64.28-45.36 36.87-5.22-42.88 62.73-131.88 137.65-218.55 183.96l-35.63 19.02 32.01 18.42c147.2 84.73 247.12 60.32 394.79-96.37l45.5-48.28-19.66 35.58c-44.76 81-130.58 176.84-179.65 200.59l-18.06 8.74 23.33 11.92c70.53 35.97 195.41 45.94 245.31 19.57 52.74-27.87 117.57-105.09 194.72-231.93 15.84-26.03 16.13-14.62 0.99 40-12.3 44.44-48.98 126.83-71.29 160.12-16.9 25.22-8.03 25.49 49.43 1.53 198.42-82.76 326.84-258.43 350.06-478.83 4.06-38.65 9.97-35.4-209.63-116.16-30.98-11.39-93.69-34.59-139.35-51.51-45.66-16.92-111.04-40.93-145.28-53.34-34.24-12.42-86.83-32.15-116.87-43.85-67.54-26.28-68.56-26.28-88.74 0.97z"/>
	</g>
	</svg>
</svg>
